<?xml version="1.0" encoding="iso-8859-1"?>
<!-- Generator: Adobe Illustrator 19.1.0, SVG Export Plug-In . SVG Version: 6.00 Build 0)  -->
<svg version="1.1" id="Capa_1" xmlns="http://www.w3.org/2000/svg" xmlns:xlink="http://www.w3.org/1999/xlink" x="0px" y="0px"
	 viewBox="0 0 334.202 334.202" style="enable-background:new 0 0 334.202 334.202;" xml:space="preserve">
<g>
	<path d="M157.904,266.637h-67.43v-30.033c0-4.152,0.797-8.046,2.378-11.71c1.587-3.65,3.74-6.838,6.465-9.563
		s5.906-4.872,9.537-6.427c3.625-1.568,7.519-2.346,11.665-2.346h10.064c1.395,0,2.699-0.251,3.901-0.758
		c1.208-0.514,2.275-1.228,3.181-2.134c0.913-0.913,1.613-1.992,2.127-3.213c0.514-1.228,0.771-2.545,0.771-3.946
		c0-1.401-0.257-2.706-0.771-3.908c-0.514-1.208-1.215-2.275-2.127-3.181s-1.973-1.62-3.181-2.127
		c-1.208-0.514-2.519-0.765-3.901-0.765H94.805v-20.052h35.778c4.145,0,8.034,0.79,11.658,2.378
		c3.631,1.575,6.819,3.734,9.531,6.459c2.731,2.725,4.884,5.906,6.465,9.531c1.581,3.618,2.378,7.507,2.378,11.658
		s-0.797,8.053-2.378,11.697c-1.581,3.65-3.734,6.838-6.465,9.563c-2.725,2.738-5.9,4.884-9.531,6.465
		c-3.625,1.594-7.526,2.384-11.658,2.384h-10.064c-1.401,0-2.699,0.251-3.908,0.765c-1.215,0.514-2.275,1.215-3.181,2.134
		c-0.919,0.906-1.62,1.96-2.134,3.175c-0.514,1.208-0.771,2.513-0.771,3.914v9.994h47.379
		C157.904,246.591,157.904,266.637,157.904,266.637z M225.289,264.49c3.811-1.452,7.147-3.515,10.039-6.234
		c2.886-2.699,5.193-6.003,6.915-9.917c1.722-3.914,2.577-8.323,2.577-13.207c0-4.846-0.848-9.216-2.571-13.098
		c-1.722-3.882-4.023-7.192-6.915-9.917s-6.228-4.82-10.039-6.266c-3.792-1.452-7.764-2.159-11.915-2.159h-18.304l1.812-17.198
		h43.805v-20.045h-61.845l-5.861,57.289h40.38c1.356,0,2.712,0.244,4.094,0.733c1.369,0.488,2.609,1.208,3.702,2.159
		c1.093,0.97,1.986,2.147,2.661,3.573c0.662,1.433,1.003,3.066,1.003,4.936c0,2.044-0.341,3.785-1.003,5.231
		c-0.675,1.446-1.568,2.641-2.661,3.567c-1.093,0.925-2.333,1.607-3.702,2.031c-1.382,0.411-2.738,0.63-4.094,0.63h-40.38v20.045
		h40.38C217.532,266.649,221.498,265.936,225.289,264.49z M333.8,65.072v51.415h-0.006v179.148
		c0,21.266-17.295,38.567-38.561,38.567H38.963c-21.273,0-38.561-17.295-38.561-38.561V116.486v-12.854V65.072
		c0-21.266,17.288-38.561,38.561-38.561h23.696v-5.623C62.658,9.37,72.029,0,83.546,0s20.887,9.37,20.887,20.887v5.623h125.33
		v-5.623C229.763,9.37,239.133,0,250.65,0s20.887,9.37,20.887,20.887v5.623h23.702C316.506,26.511,333.8,43.805,333.8,65.072z
		 M242.616,26.511v25.707c0,4.428,3.612,8.034,8.034,8.034c4.428,0,8.034-3.605,8.034-8.034V26.511v-5.623
		c0-4.428-3.605-8.034-8.034-8.034c-4.422,0-8.034,3.605-8.034,8.034V26.511z M75.512,26.511L75.512,26.511l0.006,25.707
		c0,4.428,3.612,8.034,8.034,8.034c4.428,0,8.034-3.605,8.034-8.034V20.887c0-4.428-3.599-8.034-8.034-8.034
		c-4.428,0-8.034,3.605-8.034,8.034v5.623H75.512z M13.255,103.633H320.94V65.072c0-14.178-11.536-25.707-25.707-25.707h-23.702
		v12.854c0,11.517-9.37,20.887-20.887,20.887c0,0,0,0-0.006,0l0,0c-11.517,0-20.887-9.37-20.887-20.887V39.364H104.426v12.854
		c0,11.517-9.37,20.887-20.887,20.887s-20.887-9.37-20.887-20.887V39.364H38.963c-14.178,0-25.707,11.53-25.707,25.707V103.633z
		 M320.94,116.486H13.255v179.148c0,14.178,11.53,25.707,25.707,25.707h256.27c14.171,0,25.707-11.53,25.707-25.707V116.486z"/>
</g>
<g>
</g>
<g>
</g>
<g>
</g>
<g>
</g>
<g>
</g>
<g>
</g>
<g>
</g>
<g>
</g>
<g>
</g>
<g>
</g>
<g>
</g>
<g>
</g>
<g>
</g>
<g>
</g>
<g>
</g>
</svg>
