<svg width="84" height="84" viewBox="0 0 84 84" fill="none" xmlns="http://www.w3.org/2000/svg">
<path d="M41.6667 0C18.6667 0 0 18.6667 0 41.6667C0 64.6667 18.6667 83.3333 41.6667 83.3333C64.6667 83.3333 83.3333 64.6667 83.3333 41.6667C83.3333 18.6667 64.6667 0 41.6667 0ZM41.6667 16.6667C49.7083 16.6667 56.25 23.2083 56.25 31.25C56.25 39.2917 49.7083 45.8333 41.6667 45.8333C33.625 45.8333 27.0833 39.2917 27.0833 31.25C27.0833 23.2083 33.625 16.6667 41.6667 16.6667ZM41.6667 75C33.2083 75 23.2083 71.5833 16.0833 63C23.3826 57.2759 32.3906 54.1651 41.6667 54.1651C50.9427 54.1651 59.9507 57.2759 67.25 63C60.125 71.5833 50.125 75 41.6667 75Z" fill="#F4D98C"/>
</svg>
